<?xml version="1.0" encoding="UTF-8"?>
<svg version="1.1" xmlns="http://www.w3.org/2000/svg" width="661" height="661">
<path d="M0 0 C54.45 0 108.9 0 165 0 C165 3.96 165 7.92 165 12 C168.63 12 172.26 12 176 12 C176 15.3 176 18.6 176 22 C179.3 22 182.6 22 186 22 C186 28.93 186 35.86 186 43 C188.6915625 42.9690625 188.6915625 42.9690625 191.4375 42.9375 C193.29166122 42.9161878 195.14712498 42.92773498 197 43 C199.60341656 45.60341656 198 50.31821299 198 54 C222.42 54 246.84 54 272 54 C272 57.3 272 60.6 272 64 C272.78246094 63.98839844 273.56492187 63.97679687 274.37109375 63.96484375 C275.38300781 63.95582031 276.39492188 63.94679688 277.4375 63.9375 C278.44683594 63.92589844 279.45617187 63.91429687 280.49609375 63.90234375 C283 64 283 64 284 65 C284.08685603 66.56172745 284.10702219 68.12729344 284.09765625 69.69140625 C284.09443359 70.63564453 284.09121094 71.57988281 284.08789062 72.55273438 C284.07951172 73.54595703 284.07113281 74.53917969 284.0625 75.5625 C284.05798828 76.55958984 284.05347656 77.55667969 284.04882812 78.58398438 C284.03700007 81.05604849 284.02051849 83.52799518 284 86 C284.71027344 85.98839844 285.42054688 85.97679687 286.15234375 85.96484375 C287.07144531 85.95582031 287.99054688 85.94679688 288.9375 85.9375 C289.85402344 85.92589844 290.77054687 85.91429687 291.71484375 85.90234375 C294 86 294 86 295 87 C295.07226502 88.85287502 295.0838122 90.70833878 295.0625 92.5625 C295.05347656 93.57441406 295.04445313 94.58632813 295.03515625 95.62890625 C295.01775391 96.80259766 295.01775391 96.80259766 295 98 C298.3 98 301.6 98 305 98 C305 151.79 305 205.58 305 261 C301.7 261 298.4 261 295 261 C295.01160156 261.78246094 295.02320313 262.56492187 295.03515625 263.37109375 C295.04869141 264.88896484 295.04869141 264.88896484 295.0625 266.4375 C295.07410156 267.44683594 295.08570313 268.45617187 295.09765625 269.49609375 C295 272 295 272 294 273 C292.4882886 273.09683929 290.9720461 273.12371721 289.45723629 273.12304783 C288.46944429 273.12503888 287.4816523 273.12702993 286.46392721 273.12908131 C285.36570168 273.12616847 284.26747616 273.12325563 283.13597107 273.12025452 C281.40122146 273.12153615 281.40122146 273.12153615 279.63142639 273.12284368 C276.40702557 273.12421183 273.18266441 273.12106449 269.95826828 273.11606562 C266.48654244 273.11176433 263.01481858 273.11320732 259.54309082 273.1139679 C253.52333063 273.11449334 247.50358125 273.11134445 241.48382378 273.10573006 C232.78016672 273.09761776 224.07651491 273.09500011 215.37285448 273.09374207 C201.25320536 273.09155112 187.133562 273.08488988 173.01391602 273.07543945 C159.29451527 273.06626643 145.57511608 273.05918506 131.85571289 273.05493164 C131.01065587 273.05466892 130.16559884 273.05440619 129.29493403 273.05413551 C125.05571251 273.05283051 120.81649097 273.05156679 116.57726943 273.05032361 C81.38484214 273.03994967 46.1924217 273.02225609 11 273 C11 269.04 11 265.08 11 261 C7.37 261 3.74 261 0 261 C0 257.7 0 254.4 0 251 C-3.3 251 -6.6 251 -10 251 C-10 172.13 -10 93.26 -10 12 C-6.7 12 -3.4 12 0 12 C0 8.04 0 4.08 0 0 Z " fill="#F7C33B" transform="translate(183,194)"/>
<path d="M0 0 C54.45 0 108.9 0 165 0 C165 3.96 165 7.92 165 12 C168.63 12 172.26 12 176 12 C176 15.3 176 18.6 176 22 C178.97 22 181.94 22 185 22 C185 29.26 185 36.52 185 44 C163.88 44 142.76 44 121 44 C121 40.7 121 37.4 121 34 C117.04 34 113.08 34 109 34 C109 30.37 109 26.74 109 23 C105.7 23 102.4 23 99 23 C99 19.37 99 15.74 99 12 C66.99 12 34.98 12 2 12 C2 90.54 2 169.08 2 250 C5.63 250 9.26 250 13 250 C13 253.3 13 256.6 13 260 C101.77 260 190.54 260 282 260 C282 257.03 282 254.06 282 251 C281.28972656 251.01160156 280.57945312 251.02320313 279.84765625 251.03515625 C278.92855469 251.04417969 278.00945312 251.05320312 277.0625 251.0625 C276.14597656 251.07410156 275.22945313 251.08570313 274.28515625 251.09765625 C272 251 272 251 271 250 C270.90298395 247.7850814 270.87813309 245.56700203 270.87974548 243.34996033 C270.87846385 242.29512218 270.87846385 242.29512218 270.87715632 241.21897417 C270.87549947 238.84509484 270.8810262 236.47128502 270.88647461 234.09741211 C270.88675646 232.40270489 270.88659878 230.70799755 270.8860321 229.01329041 C270.88574406 224.39778374 270.89164191 219.78230283 270.89860606 215.16680217 C270.90483844 210.34879736 270.90544331 205.53079203 270.90663147 200.71278381 C270.90974513 191.58257502 270.91795898 182.45237814 270.92798096 173.32217461 C270.93914102 162.93057324 270.94465228 152.53897132 270.94967639 142.14736545 C270.96014157 120.76490364 270.97774168 99.38245257 271 78 C268.03 78 265.06 78 262 78 C262 134.76 262 191.52 262 250 C258.04 250 254.08 250 250 250 C249.86753138 232.93188685 249.73701035 215.86376025 249.60884857 198.79561424 C249.54925145 190.86471191 249.48904021 182.93381524 249.42724609 175.00292969 C249.14707825 139.00133529 248.91621249 103.00302628 249 67 C238.77 67 228.54 67 218 67 C218 70.3 218 73.6 218 77 C221.63 77 225.26 77 229 77 C229 80.3 229 83.6 229 87 C232.3 87 235.6 87 239 87 C239 140.79 239 194.58 239 250 C235.37 250 231.74 250 228 250 C228 196.54 228 143.08 228 88 C224.37 88 220.74 88 217 88 C217 84.37 217 80.74 217 77 C213.7 77 210.4 77 207 77 C207 73.37 207 69.74 207 66 C203.37 66 199.74 66 196 66 C196 62.7 196 59.4 196 56 C192.7 56 189.4 56 186 56 C186 52.37 186 48.74 186 45 C189.63 45 193.26 45 197 45 C197 48.3 197 51.6 197 55 C221.75 55 246.5 55 272 55 C272 57.97 272 60.94 272 64 C272.78246094 63.98839844 273.56492187 63.97679687 274.37109375 63.96484375 C275.38300781 63.95582031 276.39492188 63.94679688 277.4375 63.9375 C278.44683594 63.92589844 279.45617187 63.91429687 280.49609375 63.90234375 C283 64 283 64 284 65 C284.08685603 66.56172745 284.10702219 68.12729344 284.09765625 69.69140625 C284.09443359 70.63564453 284.09121094 71.57988281 284.08789062 72.55273438 C284.07951172 73.54595703 284.07113281 74.53917969 284.0625 75.5625 C284.05798828 76.55958984 284.05347656 77.55667969 284.04882812 78.58398438 C284.03700007 81.05604849 284.02051849 83.52799518 284 86 C284.71027344 85.98839844 285.42054688 85.97679687 286.15234375 85.96484375 C287.07144531 85.95582031 287.99054688 85.94679688 288.9375 85.9375 C289.85402344 85.92589844 290.77054687 85.91429687 291.71484375 85.90234375 C294 86 294 86 295 87 C295.07226502 88.85287502 295.0838122 90.70833878 295.0625 92.5625 C295.05347656 93.57441406 295.04445313 94.58632813 295.03515625 95.62890625 C295.01775391 96.80259766 295.01775391 96.80259766 295 98 C298.3 98 301.6 98 305 98 C305 151.79 305 205.58 305 261 C301.7 261 298.4 261 295 261 C295.01160156 261.78246094 295.02320313 262.56492187 295.03515625 263.37109375 C295.04869141 264.88896484 295.04869141 264.88896484 295.0625 266.4375 C295.07410156 267.44683594 295.08570313 268.45617187 295.09765625 269.49609375 C295 272 295 272 294 273 C292.4882886 273.09683929 290.9720461 273.12371721 289.45723629 273.12304783 C288.46944429 273.12503888 287.4816523 273.12702993 286.46392721 273.12908131 C285.36570168 273.12616847 284.26747616 273.12325563 283.13597107 273.12025452 C281.40122146 273.12153615 281.40122146 273.12153615 279.63142639 273.12284368 C276.40702557 273.12421183 273.18266441 273.12106449 269.95826828 273.11606562 C266.48654244 273.11176433 263.01481858 273.11320732 259.54309082 273.1139679 C253.52333063 273.11449334 247.50358125 273.11134445 241.48382378 273.10573006 C232.78016672 273.09761776 224.07651491 273.09500011 215.37285448 273.09374207 C201.25320536 273.09155112 187.133562 273.08488988 173.01391602 273.07543945 C159.29451527 273.06626643 145.57511608 273.05918506 131.85571289 273.05493164 C131.01065587 273.05466892 130.16559884 273.05440619 129.29493403 273.05413551 C125.05571251 273.05283051 120.81649097 273.05156679 116.57726943 273.05032361 C81.38484214 273.03994967 46.1924217 273.02225609 11 273 C11 269.04 11 265.08 11 261 C7.37 261 3.74 261 0 261 C0 257.7 0 254.4 0 251 C-3.3 251 -6.6 251 -10 251 C-10 172.13 -10 93.26 -10 12 C-6.7 12 -3.4 12 0 12 C0 8.04 0 4.08 0 0 Z " fill="#977764" transform="translate(183,194)"/>
<path d="M0 0 C10.23 0 20.46 0 31 0 C32.05449882 36.78025316 32.12597075 73.53931336 32.07202661 110.33057427 C32.06058458 118.28060705 32.05528538 126.230641 32.05032361 134.18068004 C32.04003868 150.45379666 32.0223865 166.72689546 32 183 C35.96 183 39.92 183 44 183 C44 126.24 44 69.48 44 11 C46.97 11 49.94 11 53 11 C53.33 67.76 53.66 124.52 54 183 C57.3 183.33 60.6 183.66 64 184 C64 186.97 64 189.94 64 193 C-24.77 193 -113.54 193 -205 193 C-205 189.7 -205 186.4 -205 183 C-130.42 183 -55.84 183 21 183 C21 129.21 21 75.42 21 20 C17.7 20 14.4 20 11 20 C11 16.7 11 13.4 11 10 C7.37 10 3.74 10 0 10 C0 6.7 0 3.4 0 0 Z " fill="#E58B39" transform="translate(401,261)"/>
<path d="M0 0 C3.63 0 7.26 0 11 0 C11 3.3 11 6.6 11 10 C35.75 10 60.5 10 86 10 C86 12.97 86 15.94 86 19 C87.17369141 18.98259766 87.17369141 18.98259766 88.37109375 18.96484375 C89.88896484 18.95130859 89.88896484 18.95130859 91.4375 18.9375 C92.44683594 18.92589844 93.45617187 18.91429687 94.49609375 18.90234375 C97 19 97 19 98 20 C98.08685603 21.56172745 98.10702219 23.12729344 98.09765625 24.69140625 C98.09282227 26.10776367 98.09282227 26.10776367 98.08789062 27.55273438 C98.07532227 29.04256836 98.07532227 29.04256836 98.0625 30.5625 C98.05798828 31.55958984 98.05347656 32.55667969 98.04882812 33.58398438 C98.03700023 36.05601487 98.01906415 38.52801472 98 41 C101.3 41 104.6 41 108 41 C107.67 44.96 107.34 48.92 107 53 C103.37 53 99.74 53 96 53 C96 102.83 96 152.66 96 204 C92.7 204 89.4 204 86 204 C86 147.24 86 90.48 86 32 C82.04 32 78.08 32 74 32 C74 88.76 74 145.52 74 204 C71.03 204 68.06 204 65 204 C65 143.61 65 83.22 65 21 C53.78 21 42.56 21 31 21 C31 24.63 31 28.26 31 32 C27.7 32 24.4 32 21 32 C21 28.37 21 24.74 21 21 C17.37 21 13.74 21 10 21 C10 17.7 10 14.4 10 11 C6.7 11 3.4 11 0 11 C0 7.37 0 3.74 0 0 Z " fill="#0A0806" transform="translate(369,239)"/>
<path d="M0 0 C53.46 0 106.92 0 162 0 C162 3.63 162 7.26 162 11 C165.96 11 169.92 11 174 11 C174 14.3 174 17.6 174 21 C176.97 21 179.94 21 183 21 C183 28.26 183 35.52 183 43 C161.88 43 140.76 43 119 43 C119 39.7 119 36.4 119 33 C115.04 33 111.08 33 107 33 C107 29.37 107 25.74 107 22 C103.7 22 100.4 22 97 22 C97 18.37 97 14.74 97 11 C64.99 11 32.98 11 0 11 C0 7.37 0 3.74 0 0 Z " fill="#080503" transform="translate(185,195)"/>
<path d="M0 0 C92.73 0 185.46 0 281 0 C281 3.63 281 7.26 281 11 C188.27 11 95.54 11 0 11 C0 7.37 0 3.74 0 0 Z " fill="#090301" transform="translate(195,455)"/>
<path d="M0 0 C32.01 0 64.02 0 97 0 C97 3.63 97 7.26 97 11 C100.3 11 103.6 11 107 11 C107 14.63 107 18.26 107 22 C110.96 22 114.92 22 119 22 C119 25.3 119 28.6 119 32 C140.12 32 161.24 32 183 32 C183 24.74 183 17.48 183 10 C183.33 10 183.66 10 184 10 C184 16.93 184 23.86 184 31 C186.6915625 30.9690625 186.6915625 30.9690625 189.4375 30.9375 C191.29166122 30.9161878 193.14712498 30.92773498 195 31 C197.60341656 33.60341656 196 38.31821299 196 42 C220.42 42 244.84 42 270 42 C270 42.33 270 42.66 270 43 C245.25 43 220.5 43 195 43 C195 39.7 195 36.4 195 33 C191.37 33 187.74 33 184 33 C184 36.63 184 40.26 184 44 C187.3 44 190.6 44 194 44 C194 47.3 194 50.6 194 54 C197.63 54 201.26 54 205 54 C205 57.63 205 61.26 205 65 C201.7 65 198.4 65 195 65 C193 58.375 193 58.375 193 55 C189.37 55 185.74 55 182 55 C180.8422494 51.52674819 180.93133348 48.63932552 181 45 C180.32984863 45.00523682 179.65969727 45.01047363 178.96923828 45.01586914 C158.95723105 45.14901286 138.99813882 44.68581724 119 44 C117 37.375 117 37.375 117 34 C113.7 34 110.4 34 107 34 C107 30.7 107 27.4 107 24 C105.39125 23.855625 103.7825 23.71125 102.125 23.5625 C97.25 23.125 97.25 23.125 95 22 C94.5859375 19.93359375 94.5859375 19.93359375 94.375 17.4375 C94.26285156 16.19806641 94.26285156 16.19806641 94.1484375 14.93359375 C94.09945312 14.29550781 94.05046875 13.65742188 94 13 C92.47689461 12.9845388 92.47689461 12.9845388 90.92301941 12.96876526 C81.31674894 12.87067266 71.7105381 12.76790762 62.10436535 12.66066074 C57.16668453 12.60568231 52.22899758 12.55230487 47.29125977 12.50268555 C42.51904413 12.45466899 37.74689333 12.40231727 32.97475624 12.34705925 C31.16128483 12.32680323 29.34779577 12.30806453 27.53429222 12.29092598 C18.30127901 12.20269814 9.1875371 12.02652005 0 11 C0 7.37 0 3.74 0 0 Z " fill="#DEC765" transform="translate(185,206)"/>
<path d="M0 0 C3.63 0 7.26 0 11 0 C11.02278995 30.30276976 11.04049796 60.60553864 11.05106533 90.908315 C11.05231611 94.48208957 11.05361042 98.05586413 11.05493164 101.62963867 C11.05519395 102.34114268 11.05545626 103.05264668 11.05572652 103.78571142 C11.0600833 115.32132168 11.06797089 126.85692699 11.0771528 138.39253431 C11.08648911 150.22037862 11.09205556 162.04822033 11.09408849 173.87606817 C11.09534006 180.52326311 11.09848474 187.1704488 11.10573006 193.8176403 C11.1124861 200.06621402 11.11461781 206.31477175 11.11310768 212.56334877 C11.1133842 214.86404889 11.11539177 217.1647495 11.11920547 219.46544647 C11.12413624 222.59176605 11.12300058 225.71802427 11.12025452 228.84434509 C11.12316736 229.76747795 11.1260802 230.6906108 11.12908131 231.64171737 C11.11412121 237.88587879 11.11412121 237.88587879 10 239 C6.7 239 3.4 239 0 239 C0 160.13 0 81.26 0 0 Z " fill="#080503" transform="translate(173,206)"/>
<path d="M0 0 C3.63 0 7.26 0 11 0 C11 74.91 11 149.82 11 227 C7.37 227 3.74 227 0 227 C0 152.09 0 77.18 0 0 Z " fill="#E48D38" transform="translate(185,217)"/>
<path d="M0 0 C10.23 0 20.46 0 31 0 C32.05449882 36.78025316 32.12597075 73.53931336 32.07202661 110.33057427 C32.06058458 118.28060705 32.05528538 126.230641 32.05032361 134.18068004 C32.04003868 150.45379666 32.0223865 166.72689546 32 183 C28.37 183 24.74 183 21 183 C21 129.21 21 75.42 21 20 C17.7 20 14.4 20 11 20 C11 16.7 11 13.4 11 10 C7.37 10 3.74 10 0 10 C0 6.7 0 3.4 0 0 Z " fill="#FDFDFD" transform="translate(401,261)"/>
<path d="M0 0 C3.63 0 7.26 0 11 0 C11 53.46 11 106.92 11 162 C7.37 162 3.74 162 0 162 C0 108.54 0 55.08 0 0 Z " fill="#FDEF89" transform="translate(400,282)"/>
<path d="M0 0 C3.63 0 7.26 0 11 0 C11 53.46 11 106.92 11 162 C7.7 162 4.4 162 1 162 C0 161 0 161 -0.12304783 158.3625555 C-0.12212604 157.17620793 -0.12120424 155.98986036 -0.12025452 154.76756287 C-0.12110894 154.10925651 -0.12196337 153.45095016 -0.12284368 152.77269512 C-0.1245003 150.55082894 -0.11897418 148.32903705 -0.11352539 146.10717773 C-0.11324353 144.52084352 -0.11340123 142.93450918 -0.1139679 141.34817505 C-0.11425592 137.02811278 -0.10835837 132.70807803 -0.10139394 128.38802218 C-0.09516125 123.87831685 -0.09455667 119.36861095 -0.09336853 114.85890198 C-0.09025496 106.31305626 -0.08204124 97.76722326 -0.07201904 89.22138315 C-0.06085869 79.49482367 -0.05534765 69.76826358 -0.05032361 60.04169929 C-0.03985864 40.02779241 -0.02225871 20.01389701 0 0 Z " fill="#060402" transform="translate(476,293)"/>
<path d="M0 0 C2.97 0 5.94 0 9 0 C9 56.76 9 113.52 9 172 C6.03 172 3.06 172 0 172 C0 115.24 0 58.48 0 0 Z " fill="#CAC5C0" transform="translate(445,272)"/>
<path d="M0 0 C2.97 0 5.94 0 9 0 C9 53.13 9 106.26 9 161 C6.03 161 3.06 161 0 161 C0 107.87 0 54.74 0 0 Z " fill="#060503" transform="translate(412,282)"/>
<path d="M0 0 C2.31 0 4.62 0 7 0 C7.33 52.47 7.66 104.94 8 159 C4.7 159 1.4 159 -2 159 C-2 156.03 -2 153.06 -2 150 C-5.3 150 -8.6 150 -12 150 C-12 149.67 -12 149.34 -12 149 C-8.04 149 -4.08 149 0 149 C0 99.83 0 50.66 0 0 Z " fill="#AF5C2C" transform="translate(467,295)"/>
<path d="M0 0 C13.80340947 -0.02312041 27.60681437 -0.04091354 41.41023922 -0.05181217 C47.81899128 -0.05704166 54.22773015 -0.0641405 60.63647461 -0.07543945 C66.81559441 -0.08626599 72.99470148 -0.09227634 79.17383003 -0.09487724 C81.5370561 -0.09673192 83.90028144 -0.10035332 86.26350212 -0.10573006 C89.56101896 -0.11293738 92.85848247 -0.11399107 96.15600586 -0.11352539 C97.14358887 -0.11712067 98.13117188 -0.12071594 99.14868164 -0.12442017 C100.04195663 -0.1230455 100.93523163 -0.12167084 101.85557556 -0.12025452 C102.63633422 -0.12117631 103.41709288 -0.1220981 104.22151089 -0.12304783 C106 0 106 0 107 1 C107 3.64 107 6.28 107 9 C71.69 9 36.38 9 0 9 C0 6.03 0 3.06 0 0 Z " fill="#050403" transform="translate(369,456)"/>
<path d="M0 0 C11.22 0 22.44 0 34 0 C34 60.39 34 120.78 34 183 C36.97 183 39.94 183 43 183 C43 126.24 43 69.48 43 11 C43.33 11 43.66 11 44 11 C44 68.09 44 125.18 44 184 C40.37 184 36.74 184 33 184 C32.86753138 166.93188685 32.73701035 149.86376025 32.60884857 132.79561424 C32.54925145 124.86471191 32.48904021 116.93381524 32.42724609 109.00292969 C32.14707825 73.00133529 31.91621249 37.00302628 32 1 C21.77 1 11.54 1 1 1 C1 4.3 1 7.6 1 11 C4.63 11 8.26 11 12 11 C12 14.3 12 17.6 12 21 C15.3 21 18.6 21 22 21 C22 74.79 22 128.58 22 184 C18.37 184 14.74 184 11 184 C11 130.54 11 77.08 11 22 C7.37 22 3.74 22 0 22 C0 14.74 0 7.48 0 0 Z M12 22 C12 75.13 12 128.26 12 183 C14.97 183 17.94 183 21 183 C21 129.87 21 76.74 21 22 C18.03 22 15.06 22 12 22 Z " fill="#5A574A" transform="translate(400,260)"/>
<path d="M0 0 C0.33 0.66 0.66 1.32 1 2 C1.99 1.67 2.98 1.34 4 1 C6.28459674 0.91010626 8.57179326 0.88242795 10.8581543 0.88647461 C11.55109589 0.88632858 12.24403748 0.88618256 12.95797729 0.8860321 C15.24675637 0.88672837 17.5354539 0.8945074 19.82421875 0.90234375 C21.41176814 0.90420894 22.99931811 0.90563237 24.58686829 0.90663147 C28.7642272 0.91044866 32.94155131 0.92027214 37.11889648 0.93133545 C41.38199391 0.94156672 45.64509696 0.94613277 49.90820312 0.95117188 C58.27215138 0.96189511 66.63607136 0.97896197 75 1 C75 1.33 75 1.66 75 2 C73.35 2 71.7 2 70 2 C69.814375 3.175625 69.814375 3.175625 69.625 4.375 C69 7 69 7 67 9 C137.62 9.33 208.24 9.66 281 10 C281 10.33 281 10.66 281 11 C188.27 11 95.54 11 0 11 C0 7.37 0 3.74 0 0 Z " fill="#161514" transform="translate(195,455)"/>
<path d="M0 0 C33.99 0 67.98 0 103 0 C103 0.66 103 1.32 103 2 C101.02 2.33 99.04 2.66 97 3 C96.34 4.98 95.68 6.96 95 9 C94.505 8.01 94.505 8.01 94 7 C91.58354218 6.83312552 91.58354218 6.83312552 89 7 C88.34 7.66 87.68 8.32 87 9 C84.1380255 9.18820955 81.3735521 9.25171793 78.51123047 9.22705078 C77.63311707 9.22734283 76.75500366 9.22763489 75.85028076 9.22793579 C72.93915019 9.22653912 70.02827353 9.21096213 67.1171875 9.1953125 C65.10222514 9.19158357 63.08726096 9.18873603 61.07229614 9.18673706 C55.76217668 9.17909118 50.45216618 9.1594345 45.14208984 9.1373291 C39.72625197 9.11689121 34.31039655 9.10773975 28.89453125 9.09765625 C18.26297289 9.07618951 7.6314955 9.04204207 -3 9 C-2.41321669 5.47930015 -1.64350079 3.28700157 0 0 Z " fill="#050402" transform="translate(189,196)"/>
<path d="M0 0 C31.35 0 62.7 0 95 0 C95 3.3 95 6.6 95 10 C63.65 9.67 32.3 9.34 0 9 C0 6.03 0 3.06 0 0 Z " fill="#FDEF89" transform="translate(186,207)"/>
<path d="M0 0 C13.53 0 27.06 0 41 0 C41 3.3 41 6.6 41 10 C44.63 10 48.26 10 52 10 C52 13.3 52 16.6 52 20 C38.14 20 24.28 20 10 20 C9.67 16.7 9.34 13.4 9 10 C6.03 9.67 3.06 9.34 0 9 C0 6.03 0 3.06 0 0 Z " fill="#AF5B2C" transform="translate(294,207)"/>
<path d="M0 0 C0.99 0 1.98 0 3 0 C3 32.34 3 64.68 3 98 C1.02 98.495 1.02 98.495 -1 99 C-1 102.3 -1 105.6 -1 109 C-1.66 109 -2.32 109 -3 109 C-5.53856893 104.14577181 -5.26845227 99.49515755 -5.22705078 94.16088867 C-5.22734283 93.17504791 -5.22763489 92.18920715 -5.22793579 91.17349243 C-5.22654472 87.92156104 -5.2109938 84.66986002 -5.1953125 81.41796875 C-5.19158158 79.16067124 -5.18873498 76.9033721 -5.18673706 74.64607239 C-5.17910682 68.70964067 -5.15946345 62.77330706 -5.1373291 56.83691406 C-5.11685763 50.77735725 -5.10773255 44.71778456 -5.09765625 38.65820312 C-5.07621707 26.77209235 -5.04208838 14.88605434 -5 3 C-3.35 2.67 -1.7 2.34 0 2 C0 1.34 0 0.68 0 0 Z " fill="#060402" transform="translate(180,206)"/>
<path d="M0 0 C53.46 0 106.92 0 162 0 C162 3.63 162 7.26 162 11 C161.67 11 161.34 11 161 11 C161 7.7 161 4.4 161 1 C146.15 1 131.3 1 116 1 C115.34 2.32 114.68 3.64 114 5 C111.875 5.75 111.875 5.75 110 6 C109.67 7.65 109.34 9.3 109 11 C122.86 11 136.72 11 151 11 C151 14.63 151 18.26 151 22 C150.67 22 150.34 22 150 22 C150 18.7 150 15.4 150 12 C136.47 12 122.94 12 109 12 C109 14.97 109 17.94 109 21 C111.1965625 20.9690625 111.1965625 20.9690625 113.4375 20.9375 C114.95832518 20.91607993 116.48071962 20.92820036 118 21 C120.60341656 23.60341656 119 28.31821299 119 32 C132.86 32 146.72 32 161 32 C161 28.7 161 25.4 161 22 C161.33 22 161.66 22 162 22 C162 25.63 162 29.26 162 33 C143.85 33 125.7 33 107 33 C107 29.37 107 25.74 107 22 C103.7 22 100.4 22 97 22 C97 18.37 97 14.74 97 11 C64.99 11 32.98 11 0 11 C0 7.37 0 3.74 0 0 Z M1.88777161 3.28547668 C0.7927709 6.15763956 0.7927709 6.15763956 1 10 C12.6827136 10.04629062 24.36540547 10.08185254 36.04819202 10.10362434 C41.47267198 10.11407242 46.8970893 10.1282503 52.3215332 10.15087891 C57.5540243 10.17257077 62.78645507 10.18456091 68.01898766 10.18975449 C70.01772703 10.19345682 72.01646301 10.20068632 74.01517677 10.21146011 C76.80942612 10.2259264 79.60342446 10.22797998 82.39770508 10.22705078 C83.22848572 10.23424133 84.05926636 10.24143188 84.91522217 10.24884033 C88.80308889 10.23480165 90.68908501 10.20727666 94 8 C95.32 8 96.64 8 98 8 C98.495 8.99 98.495 8.99 99 10 C99.66 8.02 100.32 6.04 101 4 C103.97 3.505 103.97 3.505 107 3 C107 2.34 107 1.68 107 1 C93.62237295 0.8842961 80.24486437 0.79538089 66.86683941 0.74093914 C60.65526887 0.71481353 54.44403992 0.67936056 48.23266602 0.62280273 C42.24153588 0.56858996 36.25073487 0.53860181 30.25937843 0.52561378 C27.97032296 0.51635468 25.68128607 0.49827437 23.39237022 0.47134972 C20.1930648 0.43520311 16.9951301 0.43004876 13.7956543 0.43237305 C12.36714394 0.40540848 12.36714394 0.40540848 10.90977478 0.37789917 C5.77662393 0.28068324 5.77662393 0.28068324 1.88777161 3.28547668 Z " fill="#211F1F" transform="translate(185,195)"/>
<path d="M0 0 C2.31 0 4.62 0 7 0 C7 0.66 7 1.32 7 2 C5.35 2.33 3.7 2.66 2 3 C2 80.22 2 157.44 2 237 C4.64 237 7.28 237 10 237 C10 158.79 10 80.58 10 0 C10.33 0 10.66 0 11 0 C11.02278995 30.30276976 11.04049796 60.60553864 11.05106533 90.908315 C11.05231611 94.48208957 11.05361042 98.05586413 11.05493164 101.62963867 C11.05519395 102.34114268 11.05545626 103.05264668 11.05572652 103.78571142 C11.0600833 115.32132168 11.06797089 126.85692699 11.0771528 138.39253431 C11.08648911 150.22037862 11.09205556 162.04822033 11.09408849 173.87606817 C11.09534006 180.52326311 11.09848474 187.1704488 11.10573006 193.8176403 C11.1124861 200.06621402 11.11461781 206.31477175 11.11310768 212.56334877 C11.1133842 214.86404889 11.11539177 217.1647495 11.11920547 219.46544647 C11.12413624 222.59176605 11.12300058 225.71802427 11.12025452 228.84434509 C11.12316736 229.76747795 11.1260802 230.6906108 11.12908131 231.64171737 C11.11412121 237.88587879 11.11412121 237.88587879 10 239 C6.7 239 3.4 239 0 239 C0 160.13 0 81.26 0 0 Z " fill="#38302C" transform="translate(173,206)"/>
<path d="M0 0 C54.45 0 108.9 0 165 0 C165 3.96 165 7.92 165 12 C164.67 12 164.34 12 164 12 C164 8.37 164 4.74 164 1 C110.54 1 57.08 1 2 1 C2 83.17 2 165.34 2 250 C5.3 250 8.6 250 12 250 C12 253.63 12 257.26 12 261 C8.04 261 4.08 261 0 261 C0 174.87 0 88.74 0 0 Z " fill="#846F5D" transform="translate(183,194)"/>
<path d="M0 0 C3.63 0 7.26 0 11 0 C11 53.46 11 106.92 11 162 C7.7 162 4.4 162 1 162 C0 161 0 161 -0.12304783 158.3625555 C-0.12212604 157.17620793 -0.12120424 155.98986036 -0.12025452 154.76756287 C-0.12110894 154.10925651 -0.12196337 153.45095016 -0.12284368 152.77269512 C-0.1245003 150.55082894 -0.11897418 148.32903705 -0.11352539 146.10717773 C-0.11324353 144.52084352 -0.11340123 142.93450918 -0.1139679 141.34817505 C-0.11425592 137.02811278 -0.10835837 132.70807803 -0.10139394 128.38802218 C-0.09516125 123.87831685 -0.09455667 119.36861095 -0.09336853 114.85890198 C-0.09025496 106.31305626 -0.08204124 97.76722326 -0.07201904 89.22138315 C-0.06085869 79.49482367 -0.05534765 69.76826358 -0.05032361 60.04169929 C-0.03985864 40.02779241 -0.02225871 20.01389701 0 0 Z M2 1 C1.97667279 21.58336838 1.9590217 42.16673459 1.94818783 62.75011349 C1.94302449 72.30663939 1.93598108 81.86315709 1.92456055 91.41967773 C1.91461486 99.74602007 1.90814685 108.07235648 1.90591151 116.39870459 C1.9046042 120.81024857 1.90151712 125.22177557 1.89426994 129.63331413 C1.88751154 133.78070387 1.88538267 137.92806953 1.88689232 142.07546425 C1.88661591 143.6021373 1.88460972 145.12881112 1.88079453 146.65547943 C1.87586006 148.73083459 1.87700077 150.80609742 1.87974548 152.88145447 C1.87882369 154.04567901 1.8779019 155.20990355 1.87695217 156.40940762 C1.70553433 158.92978839 1.70553433 158.92978839 3 160 C5.31 160 7.62 160 10 160 C10 107.53 10 55.06 10 1 C7.36 1 4.72 1 2 1 Z " fill="#25180F" transform="translate(476,293)"/>
<path d="M0 0 C20.79 0 41.58 0 63 0 C63 2.64 63 5.28 63 8 C54.93347826 8.02312737 46.86697028 8.04091709 38.80042362 8.05181217 C35.05516963 8.05704014 31.30993824 8.06413622 27.56469727 8.07543945 C23.95318313 8.08627141 20.34169079 8.09227749 16.73016167 8.09487724 C15.34939671 8.09673094 13.968633 8.10035049 12.58787727 8.10573006 C10.66024048 8.11294447 8.73258193 8.11340809 6.80493164 8.11352539 C5.70572891 8.115746 4.60652618 8.11796661 3.47401428 8.12025452 C1 8 1 8 0 7 C0 4.69 0 2.38 0 0 Z " fill="#FDF08A" transform="translate(304,240)"/>
<path d="M0 0 C0.66 0 1.32 0 2 0 C2 52.8 2 105.6 2 160 C4.64 160 7.28 160 10 160 C10 115.45 10 70.9 10 25 C10.33 25 10.66 25 11 25 C11 70.21 11 115.42 11 162 C7.37 162 3.74 162 0 162 C0 108.54 0 55.08 0 0 Z " fill="#C8C7C6" transform="translate(422,282)"/>
<path d="M0 0 C2.97 0 5.94 0 9 0 C9 0.33 9 0.66 9 1 C6.36 1 3.72 1 1 1 C1.06049132 17.11590433 1.13796032 33.23162326 1.23571491 49.34734058 C1.28070569 56.82993475 1.32011266 64.31248097 1.34643555 71.79516602 C1.36938919 78.31608379 1.40275741 84.83685025 1.44870156 91.35764807 C1.47266965 94.81129347 1.49137478 98.26478868 1.49761391 101.7185154 C1.50476902 105.57138164 1.5351727 109.42387089 1.56762695 113.27661133 C1.56619186 114.42531708 1.56475677 115.57402283 1.5632782 116.75753784 C1.57581635 117.80501694 1.58835449 118.85249603 1.60127258 119.93171692 C1.60588155 120.84337018 1.61049051 121.75502344 1.61523914 122.69430256 C1.83709293 125.04595974 1.83709293 125.04595974 3.27492046 126.81676769 C5.20112585 128.3770884 5.20112585 128.3770884 9 128 C9 138.89 9 149.78 9 161 C6.03 161 3.06 161 0 161 C0 107.87 0 54.74 0 0 Z " fill="#070503" transform="translate(412,282)"/>
<path d="M0 0 C21.12 0 42.24 0 64 0 C64.495 4.95 64.495 4.95 65 10 C69.95 10.495 69.95 10.495 75 11 C75 14.3 75 17.6 75 21 C78.63 21 82.26 21 86 21 C86 24.63 86 28.26 86 32 C82.7 32 79.4 32 76 32 C74 25.375 74 25.375 74 22 C70.37 22 66.74 22 63 22 C62 19 62 19 62 12 C52.76 12 43.52 12 34 12 C34 11.67 34 11.34 34 11 C43.57 11 53.14 11 63 11 C63 7.7 63 4.4 63 1 C42.21 1 21.42 1 0 1 C0 0.67 0 0.34 0 0 Z " fill="#DCC866" transform="translate(304,239)"/>
<path d="M0 0 C2.38373381 3.57560071 2.38074071 5.53993644 2.61889648 9.79902649 C2.656566 10.4657778 2.69423552 11.13252911 2.73304653 11.81948501 C3.08785975 18.61707153 3.12645684 25.40979375 3.09765625 32.21557617 C3.09572981 33.56103459 3.09426946 34.90649373 3.0932312 36.25195312 C3.09010783 39.11315996 3.08389855 41.97433609 3.07516479 44.83553123 C3.0614865 49.36189406 3.05571707 53.88824725 3.05102539 58.41462708 C3.04000324 68.00559818 3.02041826 77.59654501 3 87.1875 C2.97793104 97.5837256 2.95740689 107.97994188 2.94658184 118.37618619 C2.94160696 122.87517467 2.93176125 127.37411796 2.91815186 131.87308824 C2.91249176 133.99199301 2.90911408 136.11088653 2.9067688 138.22979736 C2.90389699 140.81145422 2.89741747 143.39311054 2.88668823 145.9747467 C2.88661774 147.11130707 2.88654724 148.24786743 2.88647461 149.41886902 C2.884254 150.40598468 2.88203339 151.39310034 2.87974548 152.41012859 C2.98903484 154.76384782 3.32835121 156.75004645 4 159 C5.98 159.33 7.96 159.66 10 160 C10 160.33 10 160.66 10 161 C6.7 161 3.4 161 0 161 C0 107.87 0 54.74 0 0 Z " fill="#FAE26E" transform="translate(400,283)"/>
<path d="M0 0 C3.63 0 7.26 0 11 0 C11 53.46 11 106.92 11 162 C9 160 9 160 8.75390434 157.28635979 C8.75574793 156.12305704 8.75759151 154.9597543 8.75949097 153.76119995 C8.75778212 153.11428983 8.75607327 152.46737971 8.75431263 151.80086625 C8.75100663 149.62348072 8.76203937 147.44640032 8.77294922 145.26904297 C8.77351309 143.71211759 8.77319724 142.15519167 8.77206421 140.5982666 C8.77148877 136.36293665 8.7832739 132.12771925 8.79721212 127.89241552 C8.80968772 123.46947133 8.81088747 119.04652475 8.81326294 114.62356567 C8.81948706 106.24418944 8.83591044 97.8648652 8.85596192 89.4855119 C8.87829198 79.9475648 8.88930706 70.40961527 8.89935279 60.87164855 C8.92027589 41.24773665 8.95546992 21.62387159 9 2 C6.03 1.67 3.06 1.34 0 1 C0 0.67 0 0.34 0 0 Z " fill="#F6EF9F" transform="translate(400,282)"/>
<path d="M0 0 C14.52 0 29.04 0 44 0 C44 3.63 44 7.26 44 11 C43.67 11 43.34 11 43 11 C43 7.7 43 4.4 43 1 C29.47 1 15.94 1 2 1 C2 3.97 2 6.94 2 10 C4.1965625 9.9690625 4.1965625 9.9690625 6.4375 9.9375 C7.95832518 9.91607993 9.48071962 9.92820036 11 10 C13.60341656 12.60341656 12 17.31821299 12 21 C25.86 21 39.72 21 54 21 C54 17.7 54 14.4 54 11 C54.33 11 54.66 11 55 11 C55 14.63 55 18.26 55 22 C36.85 22 18.7 22 0 22 C0 18.37 0 14.74 0 11 C-3.3 11 -6.6 11 -10 11 C-10 10.67 -10 10.34 -10 10 C-6.7 10 -3.4 10 0 10 C0 6.7 0 3.4 0 0 Z " fill="#6D4528" transform="translate(292,206)"/>
<path d="M0 0 C0.33 0 0.66 0 1 0 C1 6.93 1 13.86 1 21 C3.6915625 20.9690625 3.6915625 20.9690625 6.4375 20.9375 C8.29166122 20.9161878 10.14712498 20.92773498 12 21 C14.60341656 23.60341656 13 28.31821299 13 32 C37.42 32 61.84 32 87 32 C87 32.33 87 32.66 87 33 C62.25 33 37.5 33 12 33 C12 29.7 12 26.4 12 23 C8.37 23 4.74 23 1 23 C1 26.3 1 29.6 1 33 C0.67 33 0.34 33 0 33 C0 29.7 0 26.4 0 23 C-21.45 23 -42.9 23 -65 23 C-65 19.37 -65 15.74 -65 12 C-64.67 12 -64.34 12 -64 12 C-64 15.3 -64 18.6 -64 22 C-42.88 22 -21.76 22 0 22 C0 14.74 0 7.48 0 0 Z " fill="#82806A" transform="translate(368,216)"/>
<path d="M0 0 C2.97 0 5.94 0 9 0 C9 0.33 9 0.66 9 1 C6.36 1 3.72 1 1 1 C1.06049132 17.11590433 1.13796032 33.23162326 1.23571491 49.34734058 C1.28070569 56.82993475 1.32011266 64.31248097 1.34643555 71.79516602 C1.36938919 78.31608379 1.40275741 84.83685025 1.44870156 91.35764807 C1.47266965 94.81129347 1.49137478 98.26478868 1.49761391 101.7185154 C1.50476902 105.57138164 1.5351727 109.42387089 1.56762695 113.27661133 C1.56619186 114.42531708 1.56475677 115.57402283 1.5632782 116.75753784 C1.57581635 117.80501694 1.58835449 118.85249603 1.60127258 119.93171692 C1.60588155 120.84337018 1.61049051 121.75502344 1.61523914 122.69430256 C1.83709293 125.04595974 1.83709293 125.04595974 3.27492046 126.81676769 C5.20112585 128.3770884 5.20112585 128.3770884 9 128 C9 128.99 9 129.98 9 131 C3.25 132.125 3.25 132.125 1 131 C1 140.57 1 150.14 1 160 C3.64 160 6.28 160 9 160 C9 160.33 9 160.66 9 161 C6.03 161 3.06 161 0 161 C0 107.87 0 54.74 0 0 Z " fill="#221B04" transform="translate(412,282)"/>
<path d="M0 0 C3.63 0 7.26 0 11 0 C11 3.3 11 6.6 11 10 C35.75 10 60.5 10 86 10 C86 10.33 86 10.66 86 11 C61.25 11 36.5 11 11 11 C11 14.3 11 17.6 11 21 C10.67 21 10.34 21 10 21 C10 17.7 10 14.4 10 11 C6.7 11 3.4 11 0 11 C0 7.37 0 3.74 0 0 Z " fill="#45443B" transform="translate(369,239)"/>
<path d="M0 0 C7.59 0 15.18 0 23 0 C23 0.33 23 0.66 23 1 C21.35 1 19.7 1 18 1 C17.9071875 2.1446875 17.9071875 2.1446875 17.8125 3.3125 C17 6 17 6 14.84375 7.65625 C11.53032098 9.22193624 9.32974817 9.30757412 5.6875 9.1875 C4.08455078 9.14689453 4.08455078 9.14689453 2.44921875 9.10546875 C1.23685547 9.05326172 1.23685547 9.05326172 0 9 C0 6.03 0 3.06 0 0 Z " fill="#0F0D0B" transform="translate(247,456)"/>
<path d="M0 0 C1.32 0 2.64 0 4 0 C3.01 2.97 2.02 5.94 1 9 C12.68284253 8.91571025 24.36554684 8.8208714 36.04819202 8.71247292 C41.47261295 8.6624754 46.89701406 8.61614566 52.3215332 8.578125 C57.55411951 8.54131587 62.78654149 8.49496785 68.01898766 8.44193649 C70.01768811 8.42336927 72.01642382 8.40826997 74.01517677 8.39665604 C76.80952495 8.37983341 79.60349486 8.35080813 82.39770508 8.31884766 C83.22848572 8.31668747 84.05926636 8.31452728 84.91522217 8.31230164 C88.78738432 8.25552867 90.70441941 8.19705373 94 6 C95.32 6.33 96.64 6.66 98 7 C98 11.29 98 15.58 98 20 C97.67 20 97.34 20 97 20 C97 16.7 97 13.4 97 10 C64.99 10 32.98 10 0 10 C0 6.7 0 3.4 0 0 Z " fill="#171100" transform="translate(185,196)"/>
<path d="M0 0 C13.53 0 27.06 0 41 0 C41 3.3 41 6.6 41 10 C44.63 10 48.26 10 52 10 C52 13.3 52 16.6 52 20 C38.47 20 24.94 20 11 20 C11 19.67 11 19.34 11 19 C24.2 18.67 37.4 18.34 51 18 C51 16.02 51 14.04 51 12 C49.741875 12.20625 48.48375 12.4125 47.1875 12.625 C43.5985242 13.21335669 43.24926122 13.16617415 40 11 C39.67 7.7 39.34 4.4 39 1 C20.19 1.495 20.19 1.495 1 2 C1 3.65 1 5.3 1 7 C0.67 7 0.34 7 0 7 C0 4.69 0 2.38 0 0 Z " fill="#A65F39" transform="translate(294,207)"/>
<path d="M0 0 C7.91886714 -0.02314476 15.8377202 -0.040926 23.75661278 -0.05181217 C27.43345711 -0.05703632 31.11027834 -0.0641255 34.78710938 -0.07543945 C38.3337896 -0.08628493 41.88044757 -0.09228037 45.4271431 -0.09487724 C46.78196183 -0.09672849 48.13677931 -0.10034338 49.49158859 -0.10573006 C51.38549365 -0.11296238 53.27942098 -0.11340824 55.17333984 -0.11352539 C56.79216568 -0.11685631 56.79216568 -0.11685631 58.44369507 -0.12025452 C61 0 61 0 63 1 C63 1.66 63 2.32 63 3 C42.21 3 21.42 3 0 3 C0 2.01 0 1.02 0 0 Z " fill="#FDE269" transform="translate(304,247)"/>
<path d="M0 0 C31.35 0 62.7 0 95 0 C95 3.3 95 6.6 95 10 C94.34 10 93.68 10 93 10 C91.88332721 6.64998162 92.23713764 4.40745188 93 1 C81.31721022 1.10743483 69.63448313 1.22005469 57.95180798 1.33933926 C52.52738171 1.39456081 47.10295005 1.44797966 41.6784668 1.49731445 C36.44593362 1.54496923 31.21346662 1.59731256 25.98101234 1.65294075 C23.98229935 1.67335923 21.98356821 1.69207316 19.98482323 1.70907402 C17.19058024 1.73312914 14.39646254 1.76318233 11.60229492 1.79467773 C10.35612396 1.80331093 10.35612396 1.80331093 9.08477783 1.81211853 C5.80886078 1.85423496 3.1290888 1.9569704 0 3 C0 2.01 0 1.02 0 0 Z " fill="#F7EE95" transform="translate(186,207)"/>
<path d="M0 0 C2.97 0 5.94 0 9 0 C8.67 0.66 8.34 1.32 8 2 C5.69 2.33 3.38 2.66 1 3 C1 34.68 1 66.36 1 99 C0.67 99 0.34 99 0 99 C0 66.33 0 33.66 0 0 Z " fill="#E28F3D" transform="translate(186,217)"/>
<path d="M0 0 C3.3 0 6.6 0 10 0 C10 3.63 10 7.26 10 11 C6.7 11 3.4 11 0 11 C0 7.37 0 3.74 0 0 Z " fill="#110B07" transform="translate(185,444)"/>
<path d="M0 0 C3.3 0 6.6 0 10 0 C10 3.63 10 7.26 10 11 C6.7 11 3.4 11 0 11 C0 7.37 0 3.74 0 0 Z " fill="#F8E989" transform="translate(390,271)"/>
<path d="M0 0 C3.63 0 7.26 0 11 0 C11 3.3 11 6.6 11 10 C7.7 10 4.4 10 1 10 C0.67 6.7 0.34 3.4 0 0 Z " fill="#F8E985" transform="translate(281,217)"/>
<path d="M0 0 C3.3 0 6.6 0 10 0 C10 3.3 10 6.6 10 10 C6.7 10 3.4 10 0 10 C0 6.7 0 3.4 0 0 Z " fill="#F6C342" transform="translate(401,444)"/>
<path d="M0 0 C3.3 0 6.6 0 10 0 C10 3.3 10 6.6 10 10 C6.7 10 3.4 10 0 10 C0 6.7 0 3.4 0 0 Z " fill="#0C0A05" transform="translate(401,271)"/>
<path d="M0 0 C3.3 0 6.6 0 10 0 C10 3.3 10 6.6 10 10 C6.7 10 3.4 10 0 10 C0 6.7 0 3.4 0 0 Z " fill="#FAF090" transform="translate(368,250)"/>
<path d="M0 0 C3.3 0 6.6 0 10 0 C10 3.3 10 6.6 10 10 C6.7 10 3.4 10 0 10 C0 6.7 0 3.4 0 0 Z " fill="#130A03" transform="translate(293,217)"/>
<path d="M0 0 C3.3 0 6.6 0 10 0 C10 3.3 10 6.6 10 10 C3.06640625 10.09765625 3.06640625 10.09765625 1 10 C0 9 0 9 -0.09765625 6.93359375 C-0.06510417 4.62239583 -0.03255208 2.31119792 0 0 Z " fill="#FCEC82" transform="translate(379,261)"/>
<path d="M0 0 C0.66 0 1.32 0 2 0 C2 3.3 2 6.6 2 10 C4.97 10 7.94 10 11 10 C11 17.26 11 24.52 11 32 C1.43 32 -8.14 32 -18 32 C-18 31.67 -18 31.34 -18 31 C-8.76 31 0.48 31 10 31 C10 24.73 10 18.46 10 12 C6.7 12 3.4 12 0 12 C0 8.04 0 4.08 0 0 Z " fill="#231F18" transform="translate(357,206)"/>
<path d="M0 0 C2.97 0 5.94 0 9 0 C9 2.97 9 5.94 9 9 C6.03 9 3.06 9 0 9 C0 6.03 0 3.06 0 0 Z " fill="#FCEE87" transform="translate(293,229)"/>
<path d="M0 0 C0.66 0 1.32 0 2 0 C2 4.62 2 9.24 2 14 C-0.64 14 -3.28 14 -6 14 C-6 11.69 -6 9.38 -6 7 C-5.071875 6.6596875 -5.071875 6.6596875 -4.125 6.3125 C-1.38589791 4.62070165 -0.94975528 3.00755839 0 0 Z " fill="#080403" transform="translate(181,429)"/>
<path d="M0 0 C2.97 0 5.94 0 9 0 C9 2.64 9 5.28 9 8 C6.03 8 3.06 8 0 8 C0 5.36 0 2.72 0 0 Z " fill="#060402" transform="translate(369,240)"/>
<path d="M0 0 C1.32 0 2.64 0 4 0 C4 0.99 4 1.98 4 3 C3.34 3 2.68 3 2 3 C2.185625 4.051875 2.37125 5.10375 2.5625 6.1875 C2.95079331 9.57119882 2.88247485 11.76425888 2 15 C-0.97 14.505 -0.97 14.505 -4 14 C-4 11.36 -4 8.72 -4 6 C-2 9 -2 9 -2 11 C-1.34 11 -0.68 11 0 11 C-0.33 10.01 -0.66 9.02 -1 8 C-1.125 4.375 -1.125 4.375 -1 1 C-0.67 0.67 -0.34 0.34 0 0 Z " fill="#100F0E" transform="translate(179,304)"/>
<path d="M0 0 C3.63 0 7.26 0 11 0 C11.72218002 7.04125516 12.13815214 13.92354019 12 21 C11.67 21 11.34 21 11 21 C10.67 18.03 10.34 15.06 10 12 C6.7 12 3.4 12 0 12 C0 8.04 0 4.08 0 0 Z M1 1 C1 3.97 1 6.94 1 10 C3.97 10 6.94 10 10 10 C10 7.03 10 4.06 10 1 C7.03 1 4.06 1 1 1 Z " fill="#EBD064" transform="translate(292,228)"/>
<path d="M0 0 C0.99 0 1.98 0 3 0 C3 2.64 3 5.28 3 8 C0.36 8 -2.28 8 -5 8 C-4.67 6.68 -4.34 5.36 -4 4 C-3.34 4 -2.68 4 -2 4 C-1.34 2.68 -0.68 1.36 0 0 Z " fill="#0B0403" transform="translate(289,208)"/>
<path d="M0 0 C0.33 0 0.66 0 1 0 C1 3.3 1 6.6 1 10 C4.63 10 8.26 10 12 10 C12 13.63 12 17.26 12 21 C11.67 21 11.34 21 11 21 C11 17.7 11 14.4 11 11 C7.7 11 4.4 11 1 11 C0.67 11.99 0.34 12.98 0 14 C0 13.01 0 12.02 0 11 C-2.97 11 -5.94 11 -9 11 C-9 10.67 -9 10.34 -9 10 C-6.03 10 -3.06 10 0 10 C0 6.7 0 3.4 0 0 Z " fill="#C7B96C" transform="translate(378,250)"/>
<path d="M0 0 C0.33 0 0.66 0 1 0 C1.33 1.98 1.66 3.96 2 6 C5.3 6.33 8.6 6.66 12 7 C12 10.63 12 14.26 12 18 C11.34 18 10.68 18 10 18 C10 15.03 10 12.06 10 9 C8.535625 8.855625 7.07125 8.71125 5.5625 8.5625 C1.125 8.125 1.125 8.125 0 7 C-0.04092937 4.66702567 -0.04241723 2.33294775 0 0 Z " fill="#F2CD52" transform="translate(378,264)"/>
<path d="M0 0 C0.66 0 1.32 0 2 0 C2 3.3 2 6.6 2 10 C4.64 10 7.28 10 10 10 C10 10.66 10 11.32 10 12 C6.7 12 3.4 12 0 12 C0 8.04 0 4.08 0 0 Z " fill="#4C4D4E" transform="translate(357,206)"/>
<path d="M0 0 C0.33 0 0.66 0 1 0 C1.1546875 1.175625 1.1546875 1.175625 1.3125 2.375 C1.77595022 5.33045181 1.77595022 5.33045181 5 7 C5 7.66 5 8.32 5 9 C6.32 8.67 7.64 8.34 9 8 C9.33 8.66 9.66 9.32 10 10 C6.7 10 3.4 10 0 10 C0 6.7 0 3.4 0 0 Z " fill="#FDE776" transform="translate(368,250)"/>
<path d="M0 0 C0.5775 0.495 1.155 0.99 1.75 1.5 C4.10400629 3.36980013 4.10400629 3.36980013 8 3 C8 3.99 8 4.98 8 6 C2.25 7.125 2.25 7.125 0 6 C0 4.02 0 2.04 0 0 Z " fill="#14120D" transform="translate(413,407)"/>
<path d="M0 0 C0.66 0 1.32 0 2 0 C2 2.97 2 5.94 2 9 C4.64 9.33 7.28 9.66 10 10 C10 10.33 10 10.66 10 11 C6.7 11 3.4 11 0 11 C0 7.37 0 3.74 0 0 Z " fill="#200A05" transform="translate(336,206)"/>
<path d="M0 0 C1.65 0.33 3.3 0.66 5 1 C5 5.29 5 9.58 5 14 C4.67 14 4.34 14 4 14 C4 10.37 4 6.74 4 3 C2.02 3 0.04 3 -2 3 C-1.34 2.01 -0.68 1.02 0 0 Z " fill="#1D1808" transform="translate(278,202)"/>
<path d="M0 0 C3.3 0 6.6 0 10 0 C10 2.64 10 5.28 10 8 C9.67 8 9.34 8 9 8 C8.67 6.35 8.34 4.7 8 3 C5.36 2.34 2.72 1.68 0 1 C0 0.67 0 0.34 0 0 Z " fill="#EFC94C" transform="translate(390,282)"/>
<path d="M0 0 C2.97 0 5.94 0 9 0 C9 2.64 9 5.28 9 8 C8.34 7.67 7.68 7.34 7 7 C6.375 4.4375 6.375 4.4375 6 2 C4.02 2 2.04 2 0 2 C0 1.34 0 0.68 0 0 Z " fill="#F4EC9E" transform="translate(380,261)"/>
<path d="M0 0 C3.3 0 6.6 0 10 0 C10 0.99 10 1.98 10 3 C6.7 2.67 3.4 2.34 0 2 C0 1.34 0 0.68 0 0 Z " fill="#F5D658" transform="translate(282,227)"/>
<path d="M0 0 C0.66 0 1.32 0 2 0 C1.67 2.97 1.34 5.94 1 9 C0.34 9 -0.32 9 -1 9 C-1.80967438 6.08517222 -2.21845993 4.53886783 -1.0625 1.6875 C-0.711875 1.130625 -0.36125 0.57375 0 0 Z " fill="#131313" transform="translate(453,250)"/>
<path d="M0 0 C1.32 0 2.64 0 4 0 C3.01 3.3 2.02 6.6 1 10 C0.67 10 0.34 10 0 10 C0 6.7 0 3.4 0 0 Z " fill="#111111" transform="translate(185,196)"/>
<path d="M0 0 C1.485 0.99 1.485 0.99 3 2 C3.1875 5.125 3.1875 5.125 3 8 C2.01 8.33 1.02 8.66 0 9 C0 6.03 0 3.06 0 0 Z " fill="#E39A32" transform="translate(411,444)"/>
<path d="M0 0 C3.3 0 6.6 0 10 0 C9.67 0.66 9.34 1.32 9 2 C6.35139573 2.59355614 3.70802678 2.74209269 1 3 C0.67 2.01 0.34 1.02 0 0 Z " fill="#9A5A36" transform="translate(336,217)"/>
<path d="M0 0 C1.32 0 2.64 0 4 0 C3.34 1.98 2.68 3.96 2 6 C1.34 6 0.68 6 0 6 C0 4.02 0 2.04 0 0 Z " fill="#11100F" transform="translate(455,261)"/>
<path d="M0 0 C0.66 0 1.32 0 2 0 C2 2.64 2 5.28 2 8 C1.34 8 0.68 8 0 8 C-0.38063221 5.6739143 -0.71269945 3.33944736 -1 1 C-0.67 0.67 -0.34 0.34 0 0 Z " fill="#FAEEA0" transform="translate(290,218)"/>
<path d="M0 0 C2.97 0 5.94 0 9 0 C8.67 0.66 8.34 1.32 8 2 C5.35139573 2.59355614 2.70802678 2.74209269 0 3 C0 2.01 0 1.02 0 0 Z " fill="#DC983D" transform="translate(186,217)"/>
</svg>
